<svg xmlns="http://www.w3.org/2000/svg" viewBox="0 0 156.000000 213.000000">
<g transform="translate(0.000000,213.000000) scale(0.100000,-0.100000)" fill="#ffffff" stroke="none">
  <path d="M813 2105 c-47 -29 -63 -63 -63 -140 0 -103 101 -245 214 -300 59 -29 94 -24 152 20 34 26 93 125 75 125 -5 0 -13 15 -16 33 -20 91 -105 205 -203 263 -50 32 -110 32 -165 -1z"/>
  <path d="M1481 1883 c-41 -21 -120 -119 -127 -157 -2 -14 -18 -48 -34 -75 -36 -59 -37 -90 -5 -160 98 -211 104 -510 12 -686 -32 -62 -161 -194 -384 -395 -57 -50 -103 -96 -103 -101 0 -15 25 -10 47 10 11 11 92 63 179 116 153 93 282 199 317 261 7 12 37 56 67 98 30 42 66 107 79 144 22 60 24 82 23 209 -1 132 -5 155 -47 325 -54 221 -56 256 -15 334 17 32 30 66 28 76 -3 17 -4 17 -37 1z"/>
  <path d="M12 1788 c-20 -20 -14 -25 51 -48 204 -75 320 -123 382 -159 39 -22 99 -56 135 -75 36 -19 91 -55 124 -80 32 -25 61 -46 65 -46 3 0 38 -31 76 -68 154 -148 180 -291 87 -477 -58 -117 -239 -338 -345 -422 -33 -25 -98 -79 -145 -120 -48 -40 -92 -77 -97 -81 -12 -8 -81 -59 -144 -105 -24 -18 -56 -39 -71 -47 -28 -16 -60 -44 -60 -54 0 -4 12 -4 28 -1 86 19 123 32 172 65 30 20 96 58 145 85 50 26 92 51 95 55 13 16 225 177 255 193 19 10 93 79 164 153 140 148 203 246 254 395 49 142 43 296 -15 405 -33 62 -117 153 -162 176 -23 11 -63 35 -91 53 -77 49 -348 137 -480 155 -44 5 -93 12 -110 14 -16 3 -70 11 -120 19 -146 25 -181 27 -193 15z"/>
</g>
</svg>
